<svg width="20" height="16" viewBox="0 0 20 16" fill="none" xmlns="http://www.w3.org/2000/svg">
<path d="M18.7492 6.85796H3.92555L8.46264 1.87555C8.6748 1.64218 8.77686 1.34131 8.74639 1.03914C8.71592 0.736965 8.5554 0.458234 8.30016 0.264265C8.04491 0.0702951 7.71584 -0.0230245 7.38533 0.00483557C7.05483 0.0326956 6.74997 0.179453 6.53781 0.412823L0.288374 7.26935C0.246329 7.32389 0.208731 7.38118 0.175884 7.44076C0.175884 7.4979 0.175885 7.53219 0.0883926 7.58932C0.0317396 7.72035 0.00207656 7.85983 0.000900269 8.00071C0.00207656 8.1416 0.0317396 8.28108 0.0883926 8.41211C0.0883926 8.46924 0.0883922 8.50353 0.175884 8.56066C0.208731 8.62025 0.246329 8.67754 0.288374 8.73208L6.53781 15.5886C6.65533 15.7176 6.80249 15.8213 6.96883 15.8924C7.13517 15.9635 7.31661 16.0003 7.50023 16C7.79227 16.0005 8.07529 15.9075 8.30016 15.7372C8.42672 15.6412 8.53133 15.5234 8.60802 15.3905C8.6847 15.2575 8.73194 15.112 8.74704 14.9623C8.76213 14.8127 8.74478 14.6617 8.69598 14.5182C8.64718 14.3747 8.56788 14.2414 8.46264 14.1259L3.92555 9.14347H18.7492C19.0807 9.14347 19.3986 9.02307 19.633 8.80876C19.8674 8.59445 19.9991 8.30379 19.9991 8.00071C19.9991 7.69764 19.8674 7.40697 19.633 7.19266C19.3986 6.97836 19.0807 6.85796 18.7492 6.85796Z" fill="white"/>
</svg>
