<svg width="58" height="75" viewBox="0 0 58 75" fill="none" xmlns="http://www.w3.org/2000/svg">
<path d="M57.6839 28.998C56.7001 25.3662 56.246 23.4747 55.6405 20.5239C55.0351 20.5996 49.586 17.1191 50.2671 11.2932C47.5426 8.94771 46.256 7.58581 43.5314 5.01333C43.2287 5.61862 40.5798 6.60221 38.0823 5.61862C35.5848 4.63502 33.4657 2.89481 32.9359 0.322327C28.5464 0.095343 26.6543 -0.0559795 22.4918 0.0196817C23.0216 1.38158 22.9459 2.21386 22.5675 3.42444C22.1891 4.71068 20.8268 5.99692 19.4645 6.60221C15.9075 8.11544 11.5179 5.92126 10.6098 5.24031C7.96089 8.49375 5.53907 11.3689 2.8902 15.1519C5.23634 16.2869 6.44725 20.2969 6.44725 22.4911C6.44725 25.8202 3.94975 29.9059 0.241333 30.2085C1.67929 36.0345 2.51179 38.153 4.40384 44.3572C13.0316 44.1302 15.6805 51.1667 14.6209 55.782C18.3293 57.2953 21.8107 59.1111 25.2921 60.4731V52.3773C14.9993 48.1403 8.3393 35.8075 10.0043 24.307C10.9882 17.5731 14.7723 11.8228 20.2971 8.72073C25.4434 5.76994 31.4223 5.39163 37.3255 7.58581C37.6282 7.66147 37.9309 7.81279 38.158 7.88846C48.0723 11.9742 54.4296 22.6424 53.2944 33.689C52.5376 41.0281 48.7535 47.081 42.3205 50.7127L41.1853 59.0355C43.3044 58.1276 45.2721 56.9926 47.0885 55.5551C46.256 52.6043 51.1753 46.7784 53.9755 47.3836C55.1864 43.9789 55.7919 42.39 57.0028 39.2122C54.581 38.9852 54.808 29.3763 57.6839 28.998Z" fill="white"/>
<path d="M42.0178 62.9697L24.9894 65.6179L25.1407 70.5359L29.606 70.9142C29.7573 73.1083 31.5737 74.8485 33.6928 74.8485C35.8119 74.8485 37.5526 73.1083 37.7796 70.9142L42.2449 70.5359L42.0178 62.9697Z" fill="white"/>
<path d="M42.3962 50.7883C46.4074 47.9888 49.1319 43.7518 50.3428 39.1365C51.5538 34.5211 51.7051 28.7709 50.0401 24.4582C48.4508 20.1455 46.1803 16.5138 42.6233 13.9413C39.0662 11.3688 34.9037 10.0069 30.2114 10.3852C26.0489 10.6878 21.2053 12.882 18.3294 15.9841C15.4535 19.0862 13.7128 23.3989 13.4857 27.8629C13.183 32.327 14.3939 36.9423 16.6644 40.8767C18.8591 44.8111 22.2648 48.1402 26.276 50.0317L27.2598 50.4857L27.1842 51.4693C27.0328 54.7227 26.9571 57.9761 26.7301 61.2296C26.7301 61.2296 30.9683 61.0782 33.0874 61.0782C35.5849 61.0026 38.0824 61.0026 40.5799 61.0026C38.0824 61.4566 35.6605 61.8349 33.163 62.2888C30.6655 62.6671 28.168 63.0454 25.7462 63.4238L24.6867 63.5751L24.611 62.3645C24.3839 59.1111 24.1569 52.6042 24.1569 52.6042C24.1569 52.6042 24.0812 52.6042 24.0055 52.5285C14.848 48.5185 8.5664 38.3799 8.86913 27.5603C9.02049 22.037 11.1396 16.4381 14.848 12.3524C18.5564 8.34234 23.8542 5.92118 29.1519 5.76985C31.8008 5.69419 34.4496 6.14816 36.8715 7.0561C39.2933 7.96403 41.6394 9.25027 43.7585 10.8392C47.921 14.0926 51.024 18.7836 52.5376 23.8529C54.0513 28.9979 53.8999 34.5968 52.0835 39.5148C50.3428 44.5841 46.7858 48.7455 42.3962 50.7883Z" fill="#FA9401"/>
</svg>
